<svg xmlns="http://www.w3.org/2000/svg" viewBox="0 0 105 135" width="105" height="135">
  <!-- Ghost body -->
  <path d="M52 8 C80 8 95 30 95 52 C95 74 83 90 70 96 C62 101 60 107 64 113 C67 119 74 117 72 123 C68 129 58 127 54 119 C50 111 42 113 32 121 C20 131 6 125 8 115 C10 105 22 107 24 115 C26 123 18 119 16 109 C14 97 14 78 14 58 C14 30 30 8 52 8 Z"
    fill="#9b7ec8" stroke="#1a1a1a" stroke-width="4.5" stroke-linejoin="round" stroke-linecap="round"/>

  <!-- Scales: vertical post -->
  <line x1="52" y1="24" x2="52" y2="40" stroke="#1a1a1a" stroke-width="3" stroke-linecap="round"/>

  <!-- Scales: horizontal beam -->
  <line x1="22" y1="40" x2="82" y2="40" stroke="#1a1a1a" stroke-width="3" stroke-linecap="round"/>

  <!-- Left attachment ring -->
  <circle cx="22" cy="40" r="3.5" fill="none" stroke="#1a1a1a" stroke-width="2"/>

  <!-- Left chains -->
  <line x1="20" y1="43" x2="15" y2="56" stroke="#1a1a1a" stroke-width="2" stroke-linecap="round"/>
  <line x1="24" y1="43" x2="29" y2="56" stroke="#1a1a1a" stroke-width="2" stroke-linecap="round"/>

  <!-- Left pan -->
  <line x1="12" y1="56" x2="32" y2="56" stroke="#1a1a1a" stroke-width="2.5"/>
  <path d="M 12 56 Q 22 70 32 56" fill="#7b5fa0" stroke="#1a1a1a" stroke-width="2.5"/>

  <!-- Right attachment ring -->
  <circle cx="82" cy="40" r="3.5" fill="none" stroke="#1a1a1a" stroke-width="2"/>

  <!-- Right chains -->
  <line x1="80" y1="43" x2="75" y2="56" stroke="#1a1a1a" stroke-width="2" stroke-linecap="round"/>
  <line x1="84" y1="43" x2="89" y2="56" stroke="#1a1a1a" stroke-width="2" stroke-linecap="round"/>

  <!-- Right pan -->
  <line x1="72" y1="56" x2="92" y2="56" stroke="#1a1a1a" stroke-width="2.5"/>
  <path d="M 72 56 Q 82 70 92 56" fill="#7b5fa0" stroke="#1a1a1a" stroke-width="2.5"/>
</svg>
